solid OpenSCAD_Model
  facet normal 0.40674 0.913544 -0
    outer loop
      vertex 1.4 2.42487 0
      vertex 0.865247 2.66296 10
      vertex 1.4 2.42487 10
    endloop
  endfacet
  facet normal 0.40674 0.913544 0
    outer loop
      vertex 0.865247 2.66296 10
      vertex 1.4 2.42487 0
      vertex 0.865247 2.66296 0
    endloop
  endfacet
  facet normal 0.40674 -0.913544 0
    outer loop
      vertex 0.865247 -2.66296 0
      vertex 1.4 -2.42487 10
      vertex 0.865247 -2.66296 10
    endloop
  endfacet
  facet normal 0.40674 -0.913544 0
    outer loop
      vertex 1.4 -2.42487 10
      vertex 0.865247 -2.66296 0
      vertex 1.4 -2.42487 0
    endloop
  endfacet
  facet normal 0.587787 0.809016 -0
    outer loop
      vertex 1.87357 2.0808 0
      vertex 1.4 2.42487 10
      vertex 1.87357 2.0808 10
    endloop
  endfacet
  facet normal 0.587787 0.809016 0
    outer loop
      vertex 1.4 2.42487 10
      vertex 1.87357 2.0808 0
      vertex 1.4 2.42487 0
    endloop
  endfacet
  facet normal 0.994521 -0.104534 0
    outer loop
      vertex 2.73881 -0.582152 10
      vertex 2.8 0 0
      vertex 2.8 0 10
    endloop
  endfacet
  facet normal 0.994521 -0.104534 0
    outer loop
      vertex 2.8 0 0
      vertex 2.73881 -0.582152 10
      vertex 2.73881 -0.582152 0
    endloop
  endfacet
  facet normal 0.866027 -0.499998 0
    outer loop
      vertex 2.26525 -1.6458 10
      vertex 2.55793 -1.13886 0
      vertex 2.55793 -1.13886 10
    endloop
  endfacet
  facet normal 0.866027 -0.499998 0
    outer loop
      vertex 2.55793 -1.13886 0
      vertex 2.26525 -1.6458 10
      vertex 2.26525 -1.6458 0
    endloop
  endfacet
  facet normal 0.866027 0.499998 0
    outer loop
      vertex 2.55793 1.13886 10
      vertex 2.26525 1.6458 0
      vertex 2.26525 1.6458 10
    endloop
  endfacet
  facet normal 0.866027 0.499998 0
    outer loop
      vertex 2.26525 1.6458 0
      vertex 2.55793 1.13886 10
      vertex 2.55793 1.13886 0
    endloop
  endfacet
  facet normal -0.743141 -0.669135 0
    outer loop
      vertex -1.87357 -2.0808 0
      vertex -2.26525 -1.6458 10
      vertex -2.26525 -1.6458 0
    endloop
  endfacet
  facet normal -0.743141 -0.669135 0
    outer loop
      vertex -2.26525 -1.6458 10
      vertex -1.87357 -2.0808 0
      vertex -1.87357 -2.0808 10
    endloop
  endfacet
  facet normal 0.743141 0.669135 0
    outer loop
      vertex 2.26525 1.6458 10
      vertex 1.87357 2.0808 0
      vertex 1.87357 2.0808 10
    endloop
  endfacet
  facet normal 0.743141 0.669135 0
    outer loop
      vertex 1.87357 2.0808 0
      vertex 2.26525 1.6458 10
      vertex 2.26525 1.6458 0
    endloop
  endfacet
  facet normal 0.994521 0.104534 0
    outer loop
      vertex 2.8 0 10
      vertex 2.73881 0.582152 0
      vertex 2.73881 0.582152 10
    endloop
  endfacet
  facet normal 0.994521 0.104534 0
    outer loop
      vertex 2.73881 0.582152 0
      vertex 2.8 0 10
      vertex 2.8 0 0
    endloop
  endfacet
  facet normal -0.40674 -0.913544 0
    outer loop
      vertex -1.4 -2.42487 0
      vertex -0.865247 -2.66296 10
      vertex -1.4 -2.42487 10
    endloop
  endfacet
  facet normal -0.40674 -0.913544 -0
    outer loop
      vertex -0.865247 -2.66296 10
      vertex -1.4 -2.42487 0
      vertex -0.865247 -2.66296 0
    endloop
  endfacet
  facet normal 0.207907 0.978149 -0
    outer loop
      vertex 0.865247 2.66296 0
      vertex 0.292679 2.78466 10
      vertex 0.865247 2.66296 10
    endloop
  endfacet
  facet normal 0.207907 0.978149 0
    outer loop
      vertex 0.292679 2.78466 10
      vertex 0.865247 2.66296 0
      vertex 0.292679 2.78466 0
    endloop
  endfacet
  facet normal 0.951059 0.309009 0
    outer loop
      vertex 2.73881 0.582152 10
      vertex 2.55793 1.13886 0
      vertex 2.55793 1.13886 10
    endloop
  endfacet
  facet normal 0.951059 0.309009 0
    outer loop
      vertex 2.55793 1.13886 0
      vertex 2.73881 0.582152 10
      vertex 2.73881 0.582152 0
    endloop
  endfacet
  facet normal -0.994521 -0.104534 0
    outer loop
      vertex -2.73881 -0.582152 0
      vertex -2.8 0 10
      vertex -2.8 0 0
    endloop
  endfacet
  facet normal -0.994521 -0.104534 0
    outer loop
      vertex -2.8 0 10
      vertex -2.73881 -0.582152 0
      vertex -2.73881 -0.582152 10
    endloop
  endfacet
  facet normal -0.866027 0.499998 0
    outer loop
      vertex -2.55793 1.13886 0
      vertex -2.26525 1.6458 10
      vertex -2.26525 1.6458 0
    endloop
  endfacet
  facet normal -0.866027 0.499998 0
    outer loop
      vertex -2.26525 1.6458 10
      vertex -2.55793 1.13886 0
      vertex -2.55793 1.13886 10
    endloop
  endfacet
  facet normal -0.207907 0.978149 0
    outer loop
      vertex -0.292679 2.78466 0
      vertex -0.865247 2.66296 10
      vertex -0.292679 2.78466 10
    endloop
  endfacet
  facet normal -0.207907 0.978149 0
    outer loop
      vertex -0.865247 2.66296 10
      vertex -0.292679 2.78466 0
      vertex -0.865247 2.66296 0
    endloop
  endfacet
  facet normal -0.40674 0.913544 0
    outer loop
      vertex -0.865247 2.66296 0
      vertex -1.4 2.42487 10
      vertex -0.865247 2.66296 10
    endloop
  endfacet
  facet normal -0.40674 0.913544 0
    outer loop
      vertex -1.4 2.42487 10
      vertex -0.865247 2.66296 0
      vertex -1.4 2.42487 0
    endloop
  endfacet
  facet normal -0.994521 0.104534 0
    outer loop
      vertex -2.8 0 0
      vertex -2.73881 0.582152 10
      vertex -2.73881 0.582152 0
    endloop
  endfacet
  facet normal -0.994521 0.104534 0
    outer loop
      vertex -2.73881 0.582152 10
      vertex -2.8 0 0
      vertex -2.8 0 10
    endloop
  endfacet
  facet normal 0.207907 -0.978149 0
    outer loop
      vertex 0.292679 -2.78466 0
      vertex 0.865247 -2.66296 10
      vertex 0.292679 -2.78466 10
    endloop
  endfacet
  facet normal 0.207907 -0.978149 0
    outer loop
      vertex 0.865247 -2.66296 10
      vertex 0.292679 -2.78466 0
      vertex 0.865247 -2.66296 0
    endloop
  endfacet
  facet normal 0 1 -0
    outer loop
      vertex 0.292679 2.78466 0
      vertex -0.292679 2.78466 10
      vertex 0.292679 2.78466 10
    endloop
  endfacet
  facet normal 0 1 0
    outer loop
      vertex -0.292679 2.78466 10
      vertex 0.292679 2.78466 0
      vertex -0.292679 2.78466 0
    endloop
  endfacet
  facet normal -0.743141 0.669135 0
    outer loop
      vertex -2.26525 1.6458 0
      vertex -1.87357 2.0808 10
      vertex -1.87357 2.0808 0
    endloop
  endfacet
  facet normal -0.743141 0.669135 0
    outer loop
      vertex -1.87357 2.0808 10
      vertex -2.26525 1.6458 0
      vertex -2.26525 1.6458 10
    endloop
  endfacet
  facet normal -0.951059 -0.309009 0
    outer loop
      vertex -2.55793 -1.13886 0
      vertex -2.73881 -0.582152 10
      vertex -2.73881 -0.582152 0
    endloop
  endfacet
  facet normal -0.951059 -0.309009 0
    outer loop
      vertex -2.73881 -0.582152 10
      vertex -2.55793 -1.13886 0
      vertex -2.55793 -1.13886 10
    endloop
  endfacet
  facet normal 0.951059 -0.309009 0
    outer loop
      vertex 2.55793 -1.13886 10
      vertex 2.73881 -0.582152 0
      vertex 2.73881 -0.582152 10
    endloop
  endfacet
  facet normal 0.951059 -0.309009 0
    outer loop
      vertex 2.73881 -0.582152 0
      vertex 2.55793 -1.13886 10
      vertex 2.55793 -1.13886 0
    endloop
  endfacet
  facet normal 0.743141 -0.669135 0
    outer loop
      vertex 1.87357 -2.0808 10
      vertex 2.26525 -1.6458 0
      vertex 2.26525 -1.6458 10
    endloop
  endfacet
  facet normal 0.743141 -0.669135 0
    outer loop
      vertex 2.26525 -1.6458 0
      vertex 1.87357 -2.0808 10
      vertex 1.87357 -2.0808 0
    endloop
  endfacet
  facet normal 0 0 -1
    outer loop
      vertex 2 0 0
      vertex 2.8 0 0
      vertex 2.73881 -0.582152 0
    endloop
  endfacet
  facet normal 0 0 -1
    outer loop
      vertex 1.9563 -0.415823 0
      vertex 2.73881 -0.582152 0
      vertex 2.55793 -1.13886 0
    endloop
  endfacet
  facet normal 0 0 -1
    outer loop
      vertex 2.8 0 0
      vertex 2 0 0
      vertex 2.73881 0.582152 0
    endloop
  endfacet
  facet normal 0 0 -1
    outer loop
      vertex 1.82709 -0.813473 0
      vertex 2.55793 -1.13886 0
      vertex 2.26525 -1.6458 0
    endloop
  endfacet
  facet normal 0 0 -1
    outer loop
      vertex 1.9563 0.415823 0
      vertex 2.73881 0.582152 0
      vertex 2 0 0
    endloop
  endfacet
  facet normal -0 0 -1
    outer loop
      vertex 2.73881 0.582152 0
      vertex 1.9563 0.415823 0
      vertex 2.55793 1.13886 0
    endloop
  endfacet
  facet normal 0 0 -1
    outer loop
      vertex 2.73881 -0.582152 0
      vertex 1.9563 -0.415823 0
      vertex 2 0 0
    endloop
  endfacet
  facet normal 0 0 -1
    outer loop
      vertex 1.61803 -1.17557 0
      vertex 2.26525 -1.6458 0
      vertex 1.87357 -2.0808 0
    endloop
  endfacet
  facet normal 0 0 -1
    outer loop
      vertex 2.55793 -1.13886 0
      vertex 1.82709 -0.813473 0
      vertex 1.9563 -0.415823 0
    endloop
  endfacet
  facet normal 0 0 -1
    outer loop
      vertex 2.26525 -1.6458 0
      vertex 1.61803 -1.17557 0
      vertex 1.82709 -0.813473 0
    endloop
  endfacet
  facet normal 0 0 -1
    outer loop
      vertex 1.33826 -1.48629 0
      vertex 1.87357 -2.0808 0
      vertex 1.4 -2.42487 0
    endloop
  endfacet
  facet normal 0 0 -1
    outer loop
      vertex 1.87357 -2.0808 0
      vertex 1.33826 -1.48629 0
      vertex 1.61803 -1.17557 0
    endloop
  endfacet
  facet normal 0 0 -1
    outer loop
      vertex 1.4 -2.42487 0
      vertex 1 -1.73205 0
      vertex 1.33826 -1.48629 0
    endloop
  endfacet
  facet normal 0 0 -1
    outer loop
      vertex 0.865247 -2.66296 0
      vertex 1 -1.73205 0
      vertex 1.4 -2.42487 0
    endloop
  endfacet
  facet normal 0 0 -1
    outer loop
      vertex 0.865247 -2.66296 0
      vertex 0.618033 -1.90211 0
      vertex 1 -1.73205 0
    endloop
  endfacet
  facet normal 0 0 -1
    outer loop
      vertex 0.292679 -2.78466 0
      vertex 0.618033 -1.90211 0
      vertex 0.865247 -2.66296 0
    endloop
  endfacet
  facet normal 0 0 -1
    outer loop
      vertex 0.292679 -2.78466 0
      vertex 0.209057 -1.98904 0
      vertex 0.618033 -1.90211 0
    endloop
  endfacet
  facet normal 0 0 -1
    outer loop
      vertex 0.292679 -2.78466 0
      vertex -0.209057 -1.98904 0
      vertex 0.209057 -1.98904 0
    endloop
  endfacet
  facet normal 0 0 -1
    outer loop
      vertex -0.292679 -2.78466 0
      vertex -0.209057 -1.98904 0
      vertex 0.292679 -2.78466 0
    endloop
  endfacet
  facet normal 0 0 -1
    outer loop
      vertex -0.292679 -2.78466 0
      vertex -0.618033 -1.90211 0
      vertex -0.209057 -1.98904 0
    endloop
  endfacet
  facet normal 0 0 -1
    outer loop
      vertex -0.865247 -2.66296 0
      vertex -0.618033 -1.90211 0
      vertex -0.292679 -2.78466 0
    endloop
  endfacet
  facet normal 0 0 -1
    outer loop
      vertex -0.865247 -2.66296 0
      vertex -1 -1.73205 0
      vertex -0.618033 -1.90211 0
    endloop
  endfacet
  facet normal 0 0 -1
    outer loop
      vertex -1.4 -2.42487 0
      vertex -1 -1.73205 0
      vertex -0.865247 -2.66296 0
    endloop
  endfacet
  facet normal -0 0 -1
    outer loop
      vertex -1 -1.73205 0
      vertex -1.4 -2.42487 0
      vertex -1.33826 -1.48629 0
    endloop
  endfacet
  facet normal 0 0 -1
    outer loop
      vertex -1.87357 -2.0808 0
      vertex -1.33826 -1.48629 0
      vertex -1.4 -2.42487 0
    endloop
  endfacet
  facet normal -0 0 -1
    outer loop
      vertex -1.33826 -1.48629 0
      vertex -1.87357 -2.0808 0
      vertex -1.61803 -1.17557 0
    endloop
  endfacet
  facet normal 0 0 -1
    outer loop
      vertex -2.26525 -1.6458 0
      vertex -1.61803 -1.17557 0
      vertex -1.87357 -2.0808 0
    endloop
  endfacet
  facet normal -0 0 -1
    outer loop
      vertex -1.61803 -1.17557 0
      vertex -2.26525 -1.6458 0
      vertex -1.82709 -0.813473 0
    endloop
  endfacet
  facet normal 0 0 -1
    outer loop
      vertex -2.55793 -1.13886 0
      vertex -1.82709 -0.813473 0
      vertex -2.26525 -1.6458 0
    endloop
  endfacet
  facet normal -0 0 -1
    outer loop
      vertex -1.82709 -0.813473 0
      vertex -2.55793 -1.13886 0
      vertex -1.9563 -0.415823 0
    endloop
  endfacet
  facet normal 0 0 -1
    outer loop
      vertex 1.82709 0.813473 0
      vertex 2.55793 1.13886 0
      vertex 1.9563 0.415823 0
    endloop
  endfacet
  facet normal -0 0 -1
    outer loop
      vertex 2.55793 1.13886 0
      vertex 1.82709 0.813473 0
      vertex 2.26525 1.6458 0
    endloop
  endfacet
  facet normal 0 0 -1
    outer loop
      vertex 1.61803 1.17557 0
      vertex 2.26525 1.6458 0
      vertex 1.82709 0.813473 0
    endloop
  endfacet
  facet normal -0 0 -1
    outer loop
      vertex 2.26525 1.6458 0
      vertex 1.61803 1.17557 0
      vertex 1.87357 2.0808 0
    endloop
  endfacet
  facet normal 0 0 -1
    outer loop
      vertex 1.33826 1.48629 0
      vertex 1.87357 2.0808 0
      vertex 1.61803 1.17557 0
    endloop
  endfacet
  facet normal -0 0 -1
    outer loop
      vertex 1.87357 2.0808 0
      vertex 1.33826 1.48629 0
      vertex 1.4 2.42487 0
    endloop
  endfacet
  facet normal 0 0 -1
    outer loop
      vertex 1 1.73205 0
      vertex 1.4 2.42487 0
      vertex 1.33826 1.48629 0
    endloop
  endfacet
  facet normal 0 0 -1
    outer loop
      vertex 1 1.73205 0
      vertex 0.865247 2.66296 0
      vertex 1.4 2.42487 0
    endloop
  endfacet
  facet normal 0 0 -1
    outer loop
      vertex 0.618033 1.90211 0
      vertex 0.865247 2.66296 0
      vertex 1 1.73205 0
    endloop
  endfacet
  facet normal 0 0 -1
    outer loop
      vertex 0.618033 1.90211 0
      vertex 0.292679 2.78466 0
      vertex 0.865247 2.66296 0
    endloop
  endfacet
  facet normal 0 0 -1
    outer loop
      vertex 0.209057 1.98904 0
      vertex 0.292679 2.78466 0
      vertex 0.618033 1.90211 0
    endloop
  endfacet
  facet normal 0 0 -1
    outer loop
      vertex -0.209057 1.98904 0
      vertex 0.292679 2.78466 0
      vertex 0.209057 1.98904 0
    endloop
  endfacet
  facet normal 0 0 -1
    outer loop
      vertex -0.209057 1.98904 0
      vertex -0.292679 2.78466 0
      vertex 0.292679 2.78466 0
    endloop
  endfacet
  facet normal 0 0 -1
    outer loop
      vertex -0.618033 1.90211 0
      vertex -0.292679 2.78466 0
      vertex -0.209057 1.98904 0
    endloop
  endfacet
  facet normal 0 0 -1
    outer loop
      vertex -0.618033 1.90211 0
      vertex -0.865247 2.66296 0
      vertex -0.292679 2.78466 0
    endloop
  endfacet
  facet normal 0 0 -1
    outer loop
      vertex -1 1.73205 0
      vertex -0.865247 2.66296 0
      vertex -0.618033 1.90211 0
    endloop
  endfacet
  facet normal 0 0 -1
    outer loop
      vertex -1.4 2.42487 0
      vertex -1 1.73205 0
      vertex -1.33826 1.48629 0
    endloop
  endfacet
  facet normal 0 0 -1
    outer loop
      vertex -1 1.73205 0
      vertex -1.4 2.42487 0
      vertex -0.865247 2.66296 0
    endloop
  endfacet
  facet normal 0 0 -1
    outer loop
      vertex -1.87357 2.0808 0
      vertex -1.33826 1.48629 0
      vertex -1.61803 1.17557 0
    endloop
  endfacet
  facet normal 0 0 -1
    outer loop
      vertex -2.26525 1.6458 0
      vertex -1.61803 1.17557 0
      vertex -1.82709 0.813473 0
    endloop
  endfacet
  facet normal 0 0 -1
    outer loop
      vertex -1.33826 1.48629 0
      vertex -1.87357 2.0808 0
      vertex -1.4 2.42487 0
    endloop
  endfacet
  facet normal 0 0 -1
    outer loop
      vertex -2.55793 1.13886 0
      vertex -1.82709 0.813473 0
      vertex -1.9563 0.415823 0
    endloop
  endfacet
  facet normal 0 0 -1
    outer loop
      vertex -2.73881 0.582152 0
      vertex -1.9563 0.415823 0
      vertex -2 0 0
    endloop
  endfacet
  facet normal 0 0 -1
    outer loop
      vertex -2.73881 -0.582152 0
      vertex -1.9563 -0.415823 0
      vertex -2.55793 -1.13886 0
    endloop
  endfacet
  facet normal 0 0 -1
    outer loop
      vertex -1.61803 1.17557 0
      vertex -2.26525 1.6458 0
      vertex -1.87357 2.0808 0
    endloop
  endfacet
  facet normal -0 0 -1
    outer loop
      vertex -1.9563 -0.415823 0
      vertex -2.73881 -0.582152 0
      vertex -2 0 0
    endloop
  endfacet
  facet normal 0 0 -1
    outer loop
      vertex -1.82709 0.813473 0
      vertex -2.55793 1.13886 0
      vertex -2.26525 1.6458 0
    endloop
  endfacet
  facet normal 0 0 -1
    outer loop
      vertex -2.8 0 0
      vertex -2 0 0
      vertex -2.73881 -0.582152 0
    endloop
  endfacet
  facet normal 0 0 -1
    outer loop
      vertex -1.9563 0.415823 0
      vertex -2.73881 0.582152 0
      vertex -2.55793 1.13886 0
    endloop
  endfacet
  facet normal 0 0 -1
    outer loop
      vertex -2 0 0
      vertex -2.8 0 0
      vertex -2.73881 0.582152 0
    endloop
  endfacet
  facet normal 0 -1 0
    outer loop
      vertex -0.292679 -2.78466 0
      vertex 0.292679 -2.78466 10
      vertex -0.292679 -2.78466 10
    endloop
  endfacet
  facet normal 0 -1 -0
    outer loop
      vertex 0.292679 -2.78466 10
      vertex -0.292679 -2.78466 0
      vertex 0.292679 -2.78466 0
    endloop
  endfacet
  facet normal -0.951059 0.309009 0
    outer loop
      vertex -2.73881 0.582152 0
      vertex -2.55793 1.13886 10
      vertex -2.55793 1.13886 0
    endloop
  endfacet
  facet normal -0.951059 0.309009 0
    outer loop
      vertex -2.55793 1.13886 10
      vertex -2.73881 0.582152 0
      vertex -2.73881 0.582152 10
    endloop
  endfacet
  facet normal 0.587787 -0.809016 0
    outer loop
      vertex 1.4 -2.42487 0
      vertex 1.87357 -2.0808 10
      vertex 1.4 -2.42487 10
    endloop
  endfacet
  facet normal 0.587787 -0.809016 0
    outer loop
      vertex 1.87357 -2.0808 10
      vertex 1.4 -2.42487 0
      vertex 1.87357 -2.0808 0
    endloop
  endfacet
  facet normal -0.587787 -0.809016 0
    outer loop
      vertex -1.87357 -2.0808 0
      vertex -1.4 -2.42487 10
      vertex -1.87357 -2.0808 10
    endloop
  endfacet
  facet normal -0.587787 -0.809016 -0
    outer loop
      vertex -1.4 -2.42487 10
      vertex -1.87357 -2.0808 0
      vertex -1.4 -2.42487 0
    endloop
  endfacet
  facet normal -0.587787 0.809016 0
    outer loop
      vertex -1.4 2.42487 0
      vertex -1.87357 2.0808 10
      vertex -1.4 2.42487 10
    endloop
  endfacet
  facet normal -0.587787 0.809016 0
    outer loop
      vertex -1.87357 2.0808 10
      vertex -1.4 2.42487 0
      vertex -1.87357 2.0808 0
    endloop
  endfacet
  facet normal -0.866027 -0.499998 0
    outer loop
      vertex -2.26525 -1.6458 0
      vertex -2.55793 -1.13886 10
      vertex -2.55793 -1.13886 0
    endloop
  endfacet
  facet normal -0.866027 -0.499998 0
    outer loop
      vertex -2.55793 -1.13886 10
      vertex -2.26525 -1.6458 0
      vertex -2.26525 -1.6458 10
    endloop
  endfacet
  facet normal -0.207907 -0.978149 0
    outer loop
      vertex -0.865247 -2.66296 0
      vertex -0.292679 -2.78466 10
      vertex -0.865247 -2.66296 10
    endloop
  endfacet
  facet normal -0.207907 -0.978149 -0
    outer loop
      vertex -0.292679 -2.78466 10
      vertex -0.865247 -2.66296 0
      vertex -0.292679 -2.78466 0
    endloop
  endfacet
  facet normal 0 0 1
    outer loop
      vertex 2 0 10
      vertex 2.8 0 10
      vertex 2.73881 0.582152 10
    endloop
  endfacet
  facet normal 0 0 1
    outer loop
      vertex 1.9563 0.415823 10
      vertex 2.73881 0.582152 10
      vertex 2.55793 1.13886 10
    endloop
  endfacet
  facet normal 0 0 1
    outer loop
      vertex 2.8 0 10
      vertex 2 0 10
      vertex 2.73881 -0.582152 10
    endloop
  endfacet
  facet normal 0 0 1
    outer loop
      vertex 1.82709 0.813473 10
      vertex 2.55793 1.13886 10
      vertex 2.26525 1.6458 10
    endloop
  endfacet
  facet normal -0 0 1
    outer loop
      vertex 1.9563 -0.415823 10
      vertex 2.73881 -0.582152 10
      vertex 2 0 10
    endloop
  endfacet
  facet normal 0 0 1
    outer loop
      vertex 2.73881 -0.582152 10
      vertex 1.9563 -0.415823 10
      vertex 2.55793 -1.13886 10
    endloop
  endfacet
  facet normal 0 0 1
    outer loop
      vertex 2.73881 0.582152 10
      vertex 1.9563 0.415823 10
      vertex 2 0 10
    endloop
  endfacet
  facet normal 0 0 1
    outer loop
      vertex 1.61803 1.17557 10
      vertex 2.26525 1.6458 10
      vertex 1.87357 2.0808 10
    endloop
  endfacet
  facet normal 0 0 1
    outer loop
      vertex 2.55793 1.13886 10
      vertex 1.82709 0.813473 10
      vertex 1.9563 0.415823 10
    endloop
  endfacet
  facet normal 0 0 1
    outer loop
      vertex 2.26525 1.6458 10
      vertex 1.61803 1.17557 10
      vertex 1.82709 0.813473 10
    endloop
  endfacet
  facet normal 0 0 1
    outer loop
      vertex 1.33826 1.48629 10
      vertex 1.87357 2.0808 10
      vertex 1.4 2.42487 10
    endloop
  endfacet
  facet normal 0 0 1
    outer loop
      vertex 1.87357 2.0808 10
      vertex 1.33826 1.48629 10
      vertex 1.61803 1.17557 10
    endloop
  endfacet
  facet normal 0 0 1
    outer loop
      vertex 1.4 2.42487 10
      vertex 1 1.73205 10
      vertex 1.33826 1.48629 10
    endloop
  endfacet
  facet normal 0 0 1
    outer loop
      vertex 0.865247 2.66296 10
      vertex 1 1.73205 10
      vertex 1.4 2.42487 10
    endloop
  endfacet
  facet normal 0 0 1
    outer loop
      vertex 0.865247 2.66296 10
      vertex 0.618033 1.90211 10
      vertex 1 1.73205 10
    endloop
  endfacet
  facet normal 0 0 1
    outer loop
      vertex 0.292679 2.78466 10
      vertex 0.618033 1.90211 10
      vertex 0.865247 2.66296 10
    endloop
  endfacet
  facet normal 0 0 1
    outer loop
      vertex 0.292679 2.78466 10
      vertex 0.209057 1.98904 10
      vertex 0.618033 1.90211 10
    endloop
  endfacet
  facet normal 0 0 1
    outer loop
      vertex 0.292679 2.78466 10
      vertex -0.209057 1.98904 10
      vertex 0.209057 1.98904 10
    endloop
  endfacet
  facet normal -0 0 1
    outer loop
      vertex -0.292679 2.78466 10
      vertex -0.209057 1.98904 10
      vertex 0.292679 2.78466 10
    endloop
  endfacet
  facet normal 0 0 1
    outer loop
      vertex -0.292679 2.78466 10
      vertex -0.618033 1.90211 10
      vertex -0.209057 1.98904 10
    endloop
  endfacet
  facet normal -0 0 1
    outer loop
      vertex -0.865247 2.66296 10
      vertex -0.618033 1.90211 10
      vertex -0.292679 2.78466 10
    endloop
  endfacet
  facet normal 0 0 1
    outer loop
      vertex -0.865247 2.66296 10
      vertex -1 1.73205 10
      vertex -0.618033 1.90211 10
    endloop
  endfacet
  facet normal -0 0 1
    outer loop
      vertex -1.4 2.42487 10
      vertex -1 1.73205 10
      vertex -0.865247 2.66296 10
    endloop
  endfacet
  facet normal 0 0 1
    outer loop
      vertex -1 1.73205 10
      vertex -1.4 2.42487 10
      vertex -1.33826 1.48629 10
    endloop
  endfacet
  facet normal -0 0 1
    outer loop
      vertex -1.87357 2.0808 10
      vertex -1.33826 1.48629 10
      vertex -1.4 2.42487 10
    endloop
  endfacet
  facet normal 0 0 1
    outer loop
      vertex -1.33826 1.48629 10
      vertex -1.87357 2.0808 10
      vertex -1.61803 1.17557 10
    endloop
  endfacet
  facet normal -0 0 1
    outer loop
      vertex -2.26525 1.6458 10
      vertex -1.61803 1.17557 10
      vertex -1.87357 2.0808 10
    endloop
  endfacet
  facet normal 0 0 1
    outer loop
      vertex -1.61803 1.17557 10
      vertex -2.26525 1.6458 10
      vertex -1.82709 0.813473 10
    endloop
  endfacet
  facet normal -0 0 1
    outer loop
      vertex -2.55793 1.13886 10
      vertex -1.82709 0.813473 10
      vertex -2.26525 1.6458 10
    endloop
  endfacet
  facet normal 0 0 1
    outer loop
      vertex -1.82709 0.813473 10
      vertex -2.55793 1.13886 10
      vertex -1.9563 0.415823 10
    endloop
  endfacet
  facet normal -0 0 1
    outer loop
      vertex 1.82709 -0.813473 10
      vertex 2.55793 -1.13886 10
      vertex 1.9563 -0.415823 10
    endloop
  endfacet
  facet normal 0 0 1
    outer loop
      vertex 2.55793 -1.13886 10
      vertex 1.82709 -0.813473 10
      vertex 2.26525 -1.6458 10
    endloop
  endfacet
  facet normal -0 0 1
    outer loop
      vertex 1.61803 -1.17557 10
      vertex 2.26525 -1.6458 10
      vertex 1.82709 -0.813473 10
    endloop
  endfacet
  facet normal 0 0 1
    outer loop
      vertex 2.26525 -1.6458 10
      vertex 1.61803 -1.17557 10
      vertex 1.87357 -2.0808 10
    endloop
  endfacet
  facet normal -0 0 1
    outer loop
      vertex 1.33826 -1.48629 10
      vertex 1.87357 -2.0808 10
      vertex 1.61803 -1.17557 10
    endloop
  endfacet
  facet normal 0 0 1
    outer loop
      vertex 1.87357 -2.0808 10
      vertex 1.33826 -1.48629 10
      vertex 1.4 -2.42487 10
    endloop
  endfacet
  facet normal -0 0 1
    outer loop
      vertex 1 -1.73205 10
      vertex 1.4 -2.42487 10
      vertex 1.33826 -1.48629 10
    endloop
  endfacet
  facet normal 0 0 1
    outer loop
      vertex 1 -1.73205 10
      vertex 0.865247 -2.66296 10
      vertex 1.4 -2.42487 10
    endloop
  endfacet
  facet normal -0 0 1
    outer loop
      vertex 0.618033 -1.90211 10
      vertex 0.865247 -2.66296 10
      vertex 1 -1.73205 10
    endloop
  endfacet
  facet normal 0 0 1
    outer loop
      vertex 0.618033 -1.90211 10
      vertex 0.292679 -2.78466 10
      vertex 0.865247 -2.66296 10
    endloop
  endfacet
  facet normal -0 0 1
    outer loop
      vertex 0.209057 -1.98904 10
      vertex 0.292679 -2.78466 10
      vertex 0.618033 -1.90211 10
    endloop
  endfacet
  facet normal -0 0 1
    outer loop
      vertex -0.209057 -1.98904 10
      vertex 0.292679 -2.78466 10
      vertex 0.209057 -1.98904 10
    endloop
  endfacet
  facet normal 0 0 1
    outer loop
      vertex -0.209057 -1.98904 10
      vertex -0.292679 -2.78466 10
      vertex 0.292679 -2.78466 10
    endloop
  endfacet
  facet normal 0 0 1
    outer loop
      vertex -0.618033 -1.90211 10
      vertex -0.292679 -2.78466 10
      vertex -0.209057 -1.98904 10
    endloop
  endfacet
  facet normal 0 0 1
    outer loop
      vertex -0.618033 -1.90211 10
      vertex -0.865247 -2.66296 10
      vertex -0.292679 -2.78466 10
    endloop
  endfacet
  facet normal 0 0 1
    outer loop
      vertex -1 -1.73205 10
      vertex -0.865247 -2.66296 10
      vertex -0.618033 -1.90211 10
    endloop
  endfacet
  facet normal 0 0 1
    outer loop
      vertex -1.4 -2.42487 10
      vertex -1 -1.73205 10
      vertex -1.33826 -1.48629 10
    endloop
  endfacet
  facet normal 0 0 1
    outer loop
      vertex -1 -1.73205 10
      vertex -1.4 -2.42487 10
      vertex -0.865247 -2.66296 10
    endloop
  endfacet
  facet normal 0 0 1
    outer loop
      vertex -1.87357 -2.0808 10
      vertex -1.33826 -1.48629 10
      vertex -1.61803 -1.17557 10
    endloop
  endfacet
  facet normal 0 0 1
    outer loop
      vertex -2.26525 -1.6458 10
      vertex -1.61803 -1.17557 10
      vertex -1.82709 -0.813473 10
    endloop
  endfacet
  facet normal 0 0 1
    outer loop
      vertex -1.33826 -1.48629 10
      vertex -1.87357 -2.0808 10
      vertex -1.4 -2.42487 10
    endloop
  endfacet
  facet normal 0 0 1
    outer loop
      vertex -2.55793 -1.13886 10
      vertex -1.82709 -0.813473 10
      vertex -1.9563 -0.415823 10
    endloop
  endfacet
  facet normal 0 0 1
    outer loop
      vertex -2.73881 -0.582152 10
      vertex -1.9563 -0.415823 10
      vertex -2 0 10
    endloop
  endfacet
  facet normal -0 0 1
    outer loop
      vertex -2.73881 0.582152 10
      vertex -1.9563 0.415823 10
      vertex -2.55793 1.13886 10
    endloop
  endfacet
  facet normal 0 0 1
    outer loop
      vertex -1.61803 -1.17557 10
      vertex -2.26525 -1.6458 10
      vertex -1.87357 -2.0808 10
    endloop
  endfacet
  facet normal 0 0 1
    outer loop
      vertex -1.9563 0.415823 10
      vertex -2.73881 0.582152 10
      vertex -2 0 10
    endloop
  endfacet
  facet normal 0 0 1
    outer loop
      vertex -1.82709 -0.813473 10
      vertex -2.55793 -1.13886 10
      vertex -2.26525 -1.6458 10
    endloop
  endfacet
  facet normal 0 0 1
    outer loop
      vertex -2.8 0 10
      vertex -2 0 10
      vertex -2.73881 0.582152 10
    endloop
  endfacet
  facet normal 0 0 1
    outer loop
      vertex -1.9563 -0.415823 10
      vertex -2.73881 -0.582152 10
      vertex -2.55793 -1.13886 10
    endloop
  endfacet
  facet normal 0 0 1
    outer loop
      vertex -2 0 10
      vertex -2.8 0 10
      vertex -2.73881 -0.582152 10
    endloop
  endfacet
  facet normal 0.406731 0.913548 -0
    outer loop
      vertex -0.618033 -1.90211 0
      vertex -1 -1.73205 10
      vertex -0.618033 -1.90211 10
    endloop
  endfacet
  facet normal 0.406731 0.913548 0
    outer loop
      vertex -1 -1.73205 10
      vertex -0.618033 -1.90211 0
      vertex -1 -1.73205 0
    endloop
  endfacet
  facet normal -0.951053 -0.309029 0
    outer loop
      vertex 1.9563 0.415823 0
      vertex 1.82709 0.813473 10
      vertex 1.82709 0.813473 0
    endloop
  endfacet
  facet normal -0.951053 -0.309029 0
    outer loop
      vertex 1.82709 0.813473 10
      vertex 1.9563 0.415823 0
      vertex 1.9563 0.415823 10
    endloop
  endfacet
  facet normal -0.994523 -0.104517 0
    outer loop
      vertex 2 0 0
      vertex 1.9563 0.415823 10
      vertex 1.9563 0.415823 0
    endloop
  endfacet
  facet normal -0.994523 -0.104517 0
    outer loop
      vertex 1.9563 0.415823 10
      vertex 2 0 0
      vertex 2 0 10
    endloop
  endfacet
  facet normal -0.866022 -0.500006 0
    outer loop
      vertex 1.82709 0.813473 0
      vertex 1.61803 1.17557 10
      vertex 1.61803 1.17557 0
    endloop
  endfacet
  facet normal -0.866022 -0.500006 0
    outer loop
      vertex 1.61803 1.17557 10
      vertex 1.82709 0.813473 0
      vertex 1.82709 0.813473 10
    endloop
  endfacet
  facet normal 0.743149 0.669126 0
    outer loop
      vertex -1.33826 -1.48629 10
      vertex -1.61803 -1.17557 0
      vertex -1.61803 -1.17557 10
    endloop
  endfacet
  facet normal 0.743149 0.669126 0
    outer loop
      vertex -1.61803 -1.17557 0
      vertex -1.33826 -1.48629 10
      vertex -1.33826 -1.48629 0
    endloop
  endfacet
  facet normal -0.994523 0.104517 0
    outer loop
      vertex 1.9563 -0.415823 0
      vertex 2 0 10
      vertex 2 0 0
    endloop
  endfacet
  facet normal -0.994523 0.104517 0
    outer loop
      vertex 2 0 10
      vertex 1.9563 -0.415823 0
      vertex 1.9563 -0.415823 10
    endloop
  endfacet
  facet normal -0.866022 0.500006 0
    outer loop
      vertex 1.61803 -1.17557 0
      vertex 1.82709 -0.813473 10
      vertex 1.82709 -0.813473 0
    endloop
  endfacet
  facet normal -0.866022 0.500006 0
    outer loop
      vertex 1.82709 -0.813473 10
      vertex 1.61803 -1.17557 0
      vertex 1.61803 -1.17557 10
    endloop
  endfacet
  facet normal -0.406731 -0.913548 0
    outer loop
      vertex 0.618033 1.90211 0
      vertex 1 1.73205 10
      vertex 0.618033 1.90211 10
    endloop
  endfacet
  facet normal -0.406731 -0.913548 -0
    outer loop
      vertex 1 1.73205 10
      vertex 0.618033 1.90211 0
      vertex 1 1.73205 0
    endloop
  endfacet
  facet normal 0.951053 0.309029 0
    outer loop
      vertex -1.82709 -0.813473 10
      vertex -1.9563 -0.415823 0
      vertex -1.9563 -0.415823 10
    endloop
  endfacet
  facet normal 0.951053 0.309029 0
    outer loop
      vertex -1.9563 -0.415823 0
      vertex -1.82709 -0.813473 10
      vertex -1.82709 -0.813473 0
    endloop
  endfacet
  facet normal 0.587785 -0.809017 0
    outer loop
      vertex -1.33826 1.48629 0
      vertex -1 1.73205 10
      vertex -1.33826 1.48629 10
    endloop
  endfacet
  facet normal 0.587785 -0.809017 0
    outer loop
      vertex -1 1.73205 10
      vertex -1.33826 1.48629 0
      vertex -1 1.73205 0
    endloop
  endfacet
  facet normal -0.587785 -0.809017 0
    outer loop
      vertex 1 1.73205 0
      vertex 1.33826 1.48629 10
      vertex 1 1.73205 10
    endloop
  endfacet
  facet normal -0.587785 -0.809017 -0
    outer loop
      vertex 1.33826 1.48629 10
      vertex 1 1.73205 0
      vertex 1.33826 1.48629 0
    endloop
  endfacet
  facet normal 0.994523 -0.104517 0
    outer loop
      vertex -2 0 10
      vertex -1.9563 0.415823 0
      vertex -1.9563 0.415823 10
    endloop
  endfacet
  facet normal 0.994523 -0.104517 0
    outer loop
      vertex -1.9563 0.415823 0
      vertex -2 0 10
      vertex -2 0 0
    endloop
  endfacet
  facet normal -0.20791 0.978148 0
    outer loop
      vertex 0.618033 -1.90211 0
      vertex 0.209057 -1.98904 10
      vertex 0.618033 -1.90211 10
    endloop
  endfacet
  facet normal -0.20791 0.978148 0
    outer loop
      vertex 0.209057 -1.98904 10
      vertex 0.618033 -1.90211 0
      vertex 0.209057 -1.98904 0
    endloop
  endfacet
  facet normal 0.994523 0.104517 0
    outer loop
      vertex -1.9563 -0.415823 10
      vertex -2 0 0
      vertex -2 0 10
    endloop
  endfacet
  facet normal 0.994523 0.104517 0
    outer loop
      vertex -2 0 0
      vertex -1.9563 -0.415823 10
      vertex -1.9563 -0.415823 0
    endloop
  endfacet
  facet normal -0.743149 0.669126 0
    outer loop
      vertex 1.33826 -1.48629 0
      vertex 1.61803 -1.17557 10
      vertex 1.61803 -1.17557 0
    endloop
  endfacet
  facet normal -0.743149 0.669126 0
    outer loop
      vertex 1.61803 -1.17557 10
      vertex 1.33826 -1.48629 0
      vertex 1.33826 -1.48629 10
    endloop
  endfacet
  facet normal 0.951053 -0.309029 0
    outer loop
      vertex -1.9563 0.415823 10
      vertex -1.82709 0.813473 0
      vertex -1.82709 0.813473 10
    endloop
  endfacet
  facet normal 0.951053 -0.309029 0
    outer loop
      vertex -1.82709 0.813473 0
      vertex -1.9563 0.415823 10
      vertex -1.9563 0.415823 0
    endloop
  endfacet
  facet normal 0.20791 -0.978148 0
    outer loop
      vertex -0.618033 1.90211 0
      vertex -0.209057 1.98904 10
      vertex -0.618033 1.90211 10
    endloop
  endfacet
  facet normal 0.20791 -0.978148 0
    outer loop
      vertex -0.209057 1.98904 10
      vertex -0.618033 1.90211 0
      vertex -0.209057 1.98904 0
    endloop
  endfacet
  facet normal -0.20791 -0.978148 0
    outer loop
      vertex 0.209057 1.98904 0
      vertex 0.618033 1.90211 10
      vertex 0.209057 1.98904 10
    endloop
  endfacet
  facet normal -0.20791 -0.978148 -0
    outer loop
      vertex 0.618033 1.90211 10
      vertex 0.209057 1.98904 0
      vertex 0.618033 1.90211 0
    endloop
  endfacet
  facet normal 0.406731 -0.913548 0
    outer loop
      vertex -1 1.73205 0
      vertex -0.618033 1.90211 10
      vertex -1 1.73205 10
    endloop
  endfacet
  facet normal 0.406731 -0.913548 0
    outer loop
      vertex -0.618033 1.90211 10
      vertex -1 1.73205 0
      vertex -0.618033 1.90211 0
    endloop
  endfacet
  facet normal -0.406731 0.913548 0
    outer loop
      vertex 1 -1.73205 0
      vertex 0.618033 -1.90211 10
      vertex 1 -1.73205 10
    endloop
  endfacet
  facet normal -0.406731 0.913548 0
    outer loop
      vertex 0.618033 -1.90211 10
      vertex 1 -1.73205 0
      vertex 0.618033 -1.90211 0
    endloop
  endfacet
  facet normal -0.951053 0.309029 0
    outer loop
      vertex 1.82709 -0.813473 0
      vertex 1.9563 -0.415823 10
      vertex 1.9563 -0.415823 0
    endloop
  endfacet
  facet normal -0.951053 0.309029 0
    outer loop
      vertex 1.9563 -0.415823 10
      vertex 1.82709 -0.813473 0
      vertex 1.82709 -0.813473 10
    endloop
  endfacet
  facet normal 0.743149 -0.669126 0
    outer loop
      vertex -1.61803 1.17557 10
      vertex -1.33826 1.48629 0
      vertex -1.33826 1.48629 10
    endloop
  endfacet
  facet normal 0.743149 -0.669126 0
    outer loop
      vertex -1.33826 1.48629 0
      vertex -1.61803 1.17557 10
      vertex -1.61803 1.17557 0
    endloop
  endfacet
  facet normal 0.20791 0.978148 -0
    outer loop
      vertex -0.209057 -1.98904 0
      vertex -0.618033 -1.90211 10
      vertex -0.209057 -1.98904 10
    endloop
  endfacet
  facet normal 0.20791 0.978148 0
    outer loop
      vertex -0.618033 -1.90211 10
      vertex -0.209057 -1.98904 0
      vertex -0.618033 -1.90211 0
    endloop
  endfacet
  facet normal 0.866022 0.500006 0
    outer loop
      vertex -1.61803 -1.17557 10
      vertex -1.82709 -0.813473 0
      vertex -1.82709 -0.813473 10
    endloop
  endfacet
  facet normal 0.866022 0.500006 0
    outer loop
      vertex -1.82709 -0.813473 0
      vertex -1.61803 -1.17557 10
      vertex -1.61803 -1.17557 0
    endloop
  endfacet
  facet normal -0.743149 -0.669126 0
    outer loop
      vertex 1.61803 1.17557 0
      vertex 1.33826 1.48629 10
      vertex 1.33826 1.48629 0
    endloop
  endfacet
  facet normal -0.743149 -0.669126 0
    outer loop
      vertex 1.33826 1.48629 10
      vertex 1.61803 1.17557 0
      vertex 1.61803 1.17557 10
    endloop
  endfacet
  facet normal 0.866022 -0.500006 0
    outer loop
      vertex -1.82709 0.813473 10
      vertex -1.61803 1.17557 0
      vertex -1.61803 1.17557 10
    endloop
  endfacet
  facet normal 0.866022 -0.500006 0
    outer loop
      vertex -1.61803 1.17557 0
      vertex -1.82709 0.813473 10
      vertex -1.82709 0.813473 0
    endloop
  endfacet
  facet normal 0 1 -0
    outer loop
      vertex 0.209057 -1.98904 0
      vertex -0.209057 -1.98904 10
      vertex 0.209057 -1.98904 10
    endloop
  endfacet
  facet normal 0 1 0
    outer loop
      vertex -0.209057 -1.98904 10
      vertex 0.209057 -1.98904 0
      vertex -0.209057 -1.98904 0
    endloop
  endfacet
  facet normal -0.587785 0.809017 0
    outer loop
      vertex 1.33826 -1.48629 0
      vertex 1 -1.73205 10
      vertex 1.33826 -1.48629 10
    endloop
  endfacet
  facet normal -0.587785 0.809017 0
    outer loop
      vertex 1 -1.73205 10
      vertex 1.33826 -1.48629 0
      vertex 1 -1.73205 0
    endloop
  endfacet
  facet normal 0 -1 0
    outer loop
      vertex -0.209057 1.98904 0
      vertex 0.209057 1.98904 10
      vertex -0.209057 1.98904 10
    endloop
  endfacet
  facet normal 0 -1 -0
    outer loop
      vertex 0.209057 1.98904 10
      vertex -0.209057 1.98904 0
      vertex 0.209057 1.98904 0
    endloop
  endfacet
  facet normal 0.587785 0.809017 -0
    outer loop
      vertex -1 -1.73205 0
      vertex -1.33826 -1.48629 10
      vertex -1 -1.73205 10
    endloop
  endfacet
  facet normal 0.587785 0.809017 0
    outer loop
      vertex -1.33826 -1.48629 10
      vertex -1 -1.73205 0
      vertex -1.33826 -1.48629 0
    endloop
  endfacet
endsolid OpenSCAD_Model
